<?xml version="1.0" encoding="UTF-8"?><svg id="Layer_1" xmlns="http://www.w3.org/2000/svg" viewBox="0 0 511.1 133.56"><defs><style>.cls-1{fill:#fff;}.cls-2{fill:#171a2f;}.cls-3{fill:#676f89;}</style></defs><g><path class="cls-1" d="M129.82,122.45l-14-37.88c-.23-.62-.82-1.04-1.49-1.04h-7.45c-.88,0-1.59-.71-1.59-1.59v-4.23c0-.88,.71-1.59,1.59-1.59h10.93c1.1,0,1.87-1.1,1.49-2.14L92.54,1.53c-.23-.62-.82-1.04-1.49-1.04h-27.59c-.67,0-1.26,.42-1.49,1.04l-2.33,6.36-21.53,58.71c-.38,1.04,.39,2.13,1.49,2.13h8.23c.88,0,1.59,.71,1.59,1.59v4.23c0,.88-.71,1.59-1.59,1.59H15.72c-.88,0-1.59,.71-1.59,1.59v4.23c0,.88,.71,1.59,1.59,1.59h10.24c.88,0,1.59,.71,1.59,1.59v4.23c0,.88-.71,1.59-1.59,1.59h-3.06c-.67,0-1.26,.42-1.49,1.04l-13.89,37.88c-.38,1.04,.39,2.13,1.49,2.13h30.42c.7,0,1.31-.45,1.52-1.12l1.94-6.28,4.96-16.05c.21-.66,.82-1.12,1.52-1.12h41.1c.69,0,1.31,.45,1.51,1.11l6.98,22.34c.21,.66,.82,1.11,1.51,1.11h24.7c.88,0,1.59-.71,1.59-1.59v-4.23c0-.88,.71-1.59,1.59-1.59h0c1.1,0,1.87-1.1,1.49-2.14Zm-46.43-41.56c.32,1.02-.44,2.06-1.51,2.06h-31.36c-1.07,0-1.83-1.03-1.52-2.05l1.12-3.64c.21-.66,.82-1.12,1.52-1.12h12.46c.7,0,1.31-.45,1.52-1.12l10.13-32.79c.46-1.49,2.57-1.49,3.03,0l2.19,7.05,7.71,24.81c.32,1.02-.45,2.06-1.51,2.06h-3.09c-1.07,0-1.83,1.04-1.51,2.06l.84,2.7Z"/><path class="cls-3" d="M55.58,107.42h-7.4l-5.3,17.17-2.28,7.4h19.1c1.06,0,1.91-.86,1.91-1.91v-3.79c0-.93-.76-1.69-1.69-1.69h-9.64l5.3-17.17Z"/><path class="cls-3" d="M56.04,76.14h-4.58c-.59,0-1.11,.38-1.29,.95l-1.27,4.12c-.27,.87,.38,1.74,1.29,1.74h4.58c.59,0,1.11-.38,1.29-.95l1.27-4.12c.27-.87-.38-1.74-1.29-1.74Z"/><path class="cls-3" d="M65.27,76.14h5.62c1.06,0,1.99-.69,2.3-1.7l4.09-13.23,3.69-11.94-3.71-11.94-11.99,38.8Z"/><path class="cls-3" d="M120.41,76.14h14.76c1.09,0,1.98-.89,1.98-1.98v-3.44c0-1.09-.89-1.98-1.98-1.98h-9.02c-.83,0-1.57-.52-1.86-1.29L100.03,1.79c-.29-.78-1.03-1.29-1.86-1.29h-3.18c-1.38,0-2.33,1.37-1.86,2.66l26.96,72.98h.3Z"/><rect class="cls-3" x="105.31" y="76.14" width="7.36" height="7.4" rx="1.23" ry="1.23"/><path class="cls-3" d="M130.45,89.21v-3.94c0-.96-.77-1.73-1.73-1.73h-10.79c-1.2,0-2.04,1.2-1.62,2.33l13.45,36.39c.42,1.13-.42,2.33-1.62,2.33h-2.31c-.96,0-1.73,.77-1.73,1.73v3.94c0,.96,.77,1.73,1.73,1.73h12.44c1.2,0,2.04-1.2,1.62-2.33l-13.45-36.39c-.42-1.13,.42-2.33,1.62-2.33h.66c.96,0,1.73-.77,1.73-1.73Z"/><rect class="cls-3" x="137.05" y="83.54" width="7.4" height="7.4" rx="1.67" ry="1.67"/><rect class="cls-2" x="6.73" y="76.14" width="7.4" height="7.4" rx="1.44" ry="1.44"/><polygon class="cls-2" points="80.96 49.28 77.27 61.22 81.91 76.14 89.31 76.14 80.96 49.28"/><path class="cls-2" d="M75.15,78.19l1.49,4.77h7.4l-2.12-6.81h-5.26c-1.06,0-1.82,1.03-1.5,2.05Z"/><path class="cls-2" d="M84.22,107.42l7.23,23.13c.27,.86,1.06,1.44,1.96,1.44h5.89l-7.68-24.57h-7.4Z"/><path class="cls-2" d="M47.84,7.89h1.81c1.26,0,2.13,1.25,1.7,2.43l-18.28,49.83c-.26,.71-.94,1.19-1.7,1.19h-4.29c-1,0-1.81,.81-1.81,1.81v3.78c0,1,.81,1.81,1.81,1.81h8.98c.76,0,1.44-.47,1.7-1.19L59.64,7.89l1.82-4.96c.43-1.18-.44-2.43-1.7-2.43h-11.92c-1,0-1.81,.81-1.81,1.81v3.78c0,1,.81,1.81,1.81,1.81Z"/><rect class="cls-2" x="10.48" y="53.95" width="7.4" height="7.4" rx="1.03" ry="1.03"/><rect class="cls-2" x="31.24" y="7.89" width="7.4" height="7.4" rx="1.14" ry="1.14"/><rect class="cls-2" x="23.84" y="15.29" width="7.4" height="7.4" rx="1.4" ry="1.4"/><path class="cls-2" d="M17.1,83.54L.1,129.91c-.37,1.01,.38,2.08,1.45,2.08H5.65c.65,0,1.23-.4,1.45-1.01l14.31-39.02c.22-.61,.8-1.01,1.45-1.01h3.13c.85,0,1.55-.69,1.55-1.55v-4.3c0-.85-.69-1.55-1.55-1.55h-8.89Z"/></g><g><path class="cls-1" d="M161.92,7.47h-4.84c-.73,0-1.32,.59-1.32,1.32v14.61c0,.73,.59,1.32,1.32,1.32h59.78c1.06,0,1.69,1.19,1.08,2.06l-27.8,40.06c-.61,.87,.02,2.06,1.08,2.06h0c.73,0,1.32,.59,1.32,1.32v4.84c0,.73-.59,1.32-1.32,1.32h-26.48c-.73,0-1.32,.59-1.32,1.32v4.82c0,.73,.59,1.32,1.32,1.32h3.64c1.06,0,1.69,1.19,1.08,2.06l-20.56,29.63c-.15,.22-.23,.48-.23,.75v15.13c0,.73,.59,1.32,1.32,1.32h91.02c.73,0,1.32-.59,1.32-1.32v-4.84c0-.73,.59-1.32,1.32-1.32h7.08c.73,0,1.32-.59,1.32-1.32v-14.51c0-.73-.59-1.32-1.32-1.32h-59.63c-1.06,0-1.68-1.19-1.09-2.06l15.17-22.16v-.07h-5.79c-.73,0-1.32-.59-1.32-1.32v-4.84c0-.73,.59-1.32,1.32-1.32h16.16v.02h18.41c.73,0,1.32-.59,1.32-1.32v-4.84c0-.73-.59-1.32-1.32-1.32h-8.55c-1.06,0-1.68-1.19-1.09-2.06l34.31-50.1c.15-.22,.23-.48,.23-.74V1.32c0-.73-.59-1.32-1.32-1.32h-92.98c-.73,0-1.32,.59-1.32,1.32V6.15c0,.73-.59,1.32-1.32,1.32Z"/><path class="cls-3" d="M265.04,0h-4.91c-.71,0-1.28,.57-1.28,1.28v14.73c0,.26-.08,.51-.22,.72l-34.35,50.16c-.58,.85,.03,2,1.06,2h4.36c.42,0,.82-.21,1.06-.56l35.35-51.61c.15-.21,.22-.46,.22-.72V1.28c0-.71-.57-1.28-1.28-1.28Z"/><path class="cls-3" d="M203.92,76.34h-4.54c-.72,0-1.31,.58-1.31,1.31v4.86c0,.72,.58,1.31,1.31,1.31h5.8v.07l-15.18,22.17c-.59,.87,.03,2.04,1.08,2.04h4.3c.43,0,.83-.21,1.08-.57l10.74-15.69c.24-.36,.65-.57,1.08-.57h10.76c.72,0,1.31-.58,1.31-1.31v-4.85c0-.72-.58-1.31-1.31-1.31h-12.5c-.72,0-1.31-.58-1.31-1.31v-4.86c0-.72-.58-1.31-1.31-1.31Z"/><path class="cls-3" d="M257.75,108.1h-3.98c-.96,0-1.75,.78-1.75,1.75v13.65c0,.96-.78,1.75-1.75,1.75h-6.22c-.96,0-1.75,.78-1.75,1.75v3.98c0,.96,.78,1.75,1.75,1.75h21.14c.96,0,1.75-.78,1.75-1.75v-3.98c0-.96-.78-1.75-1.75-1.75h-3.97c-.96,0-1.75-.78-1.75-1.75v-13.65c0-.96-.78-1.75-1.75-1.75Z"/><rect class="cls-3" x="235.26" y="91.27" width="7.47" height="7.47" rx="1.74" ry="1.74"/><path class="cls-2" d="M167.98,83.81h-3.75c-.5,0-.97,.25-1.26,.66l-21.5,30.99c-.18,.26-.27,.56-.27,.87v14.85c0,.84,.68,1.53,1.53,1.53h4.41c.84,0,1.53-.68,1.53-1.53v-14.85c0-.31,.1-.62,.27-.87l20.29-29.24c.7-1.01-.02-2.4-1.26-2.4Z"/><rect class="cls-2" x="155.97" y="76.36" width="7.46" height="7.45" rx="1.34" ry="1.34"/><path class="cls-2" d="M157.93,7.47h3.15c1.19,0,2.16-.97,2.16-2.16V2.16c0-1.19-.97-2.16-2.16-2.16h-10.62c-1.19,0-2.16,.97-2.16,2.16V22.55c0,1.19,.97,2.16,2.16,2.16h3.15c1.19,0,2.16-.97,2.16-2.16V9.62c0-1.19,.97-2.16,2.16-2.16Z"/><rect class="cls-2" x="172.77" y="53.94" width="7.47" height="7.47" rx="1.48" ry="1.48"/><path class="cls-2" d="M181.81,61.41c-.87,0-1.57,.7-1.57,1.57v5.89h1.03v.02h6.63c.52,0,1-.25,1.29-.68l28.49-41.05c.72-1.04-.02-2.47-1.29-2.47h-3.64c-.52,0-1,.25-1.29,.68l-24.54,35.35c-.29,.42-.78,.68-1.29,.68h-3.81Z"/></g><g><path class="cls-1" d="M349.28,68.74h3.71c.97,0,1.76,.79,1.76,1.76v3.84c0,.97-.79,1.76-1.76,1.76h-18.46c-.97,0-1.76,.79-1.76,1.76v3.84c0,.97,.79,1.76,1.76,1.76h3.84c.97,0,1.76,.79,1.76,1.76v1.07c0,8.1-1.68,13.95-5.05,17.54-2.68,2.89-6.4,4.62-11.14,5.19-1.17,.14-2.4,.21-3.7,.21-12.96,0-19.62-7.16-19.98-21.5v-2.51c0-.97-.79-1.76-1.76-1.76h-3.84c-.97,0-1.76-.79-1.76-1.76v-3.84c0-.97,.79-1.76,1.76-1.76h11.21c.97,0,1.76-.79,1.76-1.76V2.5c0-.97-.79-1.76-1.76-1.76h-28.24c-.97,0-1.76,.79-1.76,1.76V66.99c0,.97,.79,1.76,1.76,1.76h11.21c.97,0,1.76,.79,1.76,1.76v3.84c0,.97-.79,1.76-1.76,1.76h-25.96c-.97,0-1.76,.79-1.76,1.76v3.82c0,.97,.79,1.76,1.76,1.76h3.84c.97,0,1.76,.79,1.76,1.76v1.88c.18,14.4,4.87,25.74,14.04,34.02,8.46,7.62,19.79,11.74,34,12.34,1.21,.05,2.45,.08,3.71,.08s2.46-.03,3.67-.08c9.02-.39,16.96-2.22,23.78-5.5,7.74-3.72,13.68-9.14,17.83-16.24,4.13-7.11,6.21-15.53,6.21-25.24v-1.25c0-.97-.79-1.76-1.76-1.76h-3.84c-.97,0-1.76-.79-1.76-1.76v-3.84c0-.97,.79-1.76,1.76-1.76h11.21c.97,0,1.76-.79,1.76-1.76V24.61c0-.97-.79-1.76-1.76-1.76h-3.84c-.97,0-1.76-.79-1.76-1.76v-3.84c0-.97,.79-1.76,1.76-1.76h3.84c.97,0,1.76-.79,1.76-1.76V2.5c0-.97-.79-1.76-1.76-1.76h-28.06c-.97,0-1.76,.79-1.76,1.76V66.97c0,.97,.79,1.76,1.76,1.76Z"/><path class="cls-3" d="M384.75,.73h-3.92c-.95,0-1.73,.77-1.73,1.73V13.75c0,.95-.77,1.73-1.73,1.73h-3.91c-.95,0-1.73,.77-1.73,1.73v3.91c0,.95,.77,1.73,1.73,1.73h3.91c.95,0,1.73,.77,1.73,1.73v49.8c0,.95,.77,1.73,1.73,1.73h13.48c.95,0,1.73-.77,1.73-1.73v-3.92c0-.95-.77-1.73-1.73-1.73h-6.11c-.95,0-1.73-.77-1.73-1.73V2.46c0-.95-.77-1.73-1.73-1.73Z"/><path class="cls-3" d="M316.8,8.11h5.73c.98,0,1.77-.79,1.77-1.77V2.51c0-.98-.79-1.77-1.77-1.77h-13.11c-.98,0-1.77,.79-1.77,1.77V74.34c0,.98,.79,1.77,1.77,1.77h3.83c.98,0,1.77-.79,1.77-1.77V9.88c0-.98,.79-1.77,1.77-1.77Z"/><rect class="cls-3" x="364.37" y="76.11" width="7.37" height="7.37" rx="1.29" ry="1.29"/><path class="cls-3" d="M371.74,86.5c0,9.72-2.07,18.13-6.21,25.24-4.15,7.11-10.09,12.53-17.83,16.24-6.82,3.28-14.76,5.12-23.78,5.5,1.22,.05,2.45,.08,3.71,.08,10.55,0,19.71-1.86,27.44-5.58,7.74-3.72,13.68-9.14,17.83-16.24,4.13-7.11,6.21-15.53,6.21-25.24v-1.49c0-.84-.68-1.52-1.52-1.52h-4.32c-.84,0-1.52,.68-1.52,1.52v1.49Z"/><rect class="cls-3" x="292.91" y="76.11" width="7.37" height="7.37" rx="1.46" ry="1.46"/><path class="cls-3" d="M320.29,108.31c-8.14-2.38-12.35-9.23-12.63-20.55v-2.81c0-.81-.65-1.46-1.46-1.46h-4.45c-.81,0-1.46,.65-1.46,1.46v2.81c.36,14.34,7.02,21.5,19.98,21.5,1.3,0,2.53-.07,3.7-.21-1.3-.16-2.53-.4-3.67-.74Z"/><rect class="cls-3" x="386.48" y="90.85" width="7.37" height="7.37" rx="1.38" ry="1.38"/><path class="cls-2" d="M268.51,87.12v-2.03c0-.89-.72-1.61-1.61-1.61h-4.14c-.89,0-1.61,.72-1.61,1.61v2.03c.18,14.4,4.87,25.74,14.04,34.02,9.19,8.28,21.75,12.42,37.71,12.42,1.24,0,2.46-.03,3.67-.08-14.21-.6-25.54-4.72-34-12.34-9.17-8.28-13.86-19.62-14.04-34.02Z"/><rect class="cls-2" x="253.77" y="76.13" width="7.37" height="7.35" rx="1.93" ry="1.93"/><rect class="cls-2" x="325.4" y="76.11" width="7.37" height="7.37" rx="1.62" ry="1.62"/><path class="cls-2" d="M332.78,86.32c0,8.1-1.68,13.95-5.05,17.54-1.21,1.31-2.64,2.37-4.27,3.21-.91,.46-.73,1.82,.28,1.95h.07c.1,.02,.2,.02,.3,0,4.67-.59,8.33-2.31,10.99-5.17,3.37-3.6,5.05-9.45,5.05-17.54v-1.81c0-.57-.46-1.03-1.03-1.03h-5.31c-.57,0-1.03,.46-1.03,1.03v1.81Z"/><path class="cls-2" d="M346.17,.73h-4.68c-.74,0-1.35,.6-1.35,1.35V68.74h-.13v6.03c0,.74,.6,1.35,1.35,1.35h12.05c.74,0,1.35-.6,1.35-1.35v-4.68c0-.74-.6-1.35-1.35-1.35h-4.54c-.74,0-1.35-.6-1.35-1.35V2.08c0-.74-.6-1.35-1.35-1.35Z"/><path class="cls-2" d="M261.14,67.33c0,.79,.64,1.43,1.43,1.43h11.88c.79,0,1.43-.64,1.43-1.43V2.16c0-.79-.64-1.43-1.43-1.43h-4.51c-.79,0-1.43,.64-1.43,1.43V59.95c0,.79-.64,1.43-1.43,1.43h-4.51c-.79,0-1.43,.64-1.43,1.43v4.51Z"/><rect class="cls-2" x="246.4" y="46.64" width="7.37" height="7.37" rx="1.75" ry="1.75"/><rect class="cls-2" x="253.77" y="39.27" width="7.37" height="7.37" rx="1.46" ry="1.46"/></g><g><path class="cls-1" d="M448.15,108.47h-13.35c-.85,0-1.53-.69-1.53-1.53v-4.38c0-.85,.69-1.53,1.53-1.53h11.82c.85,0,1.53-.69,1.53-1.53v-13.71c0-.85-.69-1.53-1.53-1.53h-4.38c-.85,0-1.53-.69-1.53-1.53v-4.38c0-.85,.69-1.53,1.53-1.53h11.82c.85,0,1.53-.69,1.53-1.53v-8.16c0-.69,.46-1.29,1.13-1.48l15.37-4.2c.67-.18,1.13-.79,1.13-1.48v-12.82c0-1.01-.96-1.74-1.93-1.48l-8.25,2.25-5.51,1.5c-.97,.27-1.93-.47-1.93-1.48V2.26c0-.85-.69-1.53-1.53-1.53h-28.83c-.85,0-1.53,.69-1.53,1.53V57.61c0,.69-.46,1.3-1.13,1.48l-10.1,2.75c-.67,.18-1.13,.79-1.13,1.48v4.53c0,.85,.69,1.53,1.53,1.53h16.73c.85,0,1.53,.69,1.53,1.53v4.38c0,.85-.69,1.53-1.53,1.53h-26.71c-.85,0-1.53,.69-1.53,1.53v4.38c0,.85,.69,1.53,1.53,1.53h11.82c.85,0,1.53,.69,1.53,1.53v45.68c0,.85,.69,1.53,1.53,1.53h67.98c.85,0,1.53-.69,1.53-1.53v-4.38c0-.85,.69-1.53,1.53-1.53h13.3c.85,0,1.53-.69,1.53-1.53v-14.03c0-.85-.69-1.53-1.53-1.53h-53.98Z"/><path class="cls-3" d="M461.47,.73h-4.31c-.87,0-1.57,.7-1.57,1.57V47.91c0,1.03,.98,1.78,1.98,1.51l4.31-1.18c.68-.19,1.15-.8,1.15-1.51V2.3c0-.87-.7-1.57-1.57-1.57Z"/><rect class="cls-3" x="440.71" y="76.82" width="7.44" height="7.44" rx="1.42" ry="1.42"/><path class="cls-3" d="M463.9,65.72l15.9-4.34c.51-.14,.86-.6,.86-1.13v-13.56c0-.77-.73-1.33-1.48-1.13l-5.1,1.39c-.51,.14-.86,.6-.86,1.13v12.17c0,.53-.35,.99-.86,1.13l-15.9,4.34c-.51,.14-.86,.6-.86,1.13v8.8c0,.65,.52,1.17,1.17,1.17h5.1c.65,0,1.17-.52,1.17-1.17v-8.8c0-.53,.35-.99,.86-1.13Z"/><path class="cls-3" d="M502.25,125.56h-13.54c-.78,0-1.41,.63-1.41,1.41v4.62c0,.78,.63,1.41,1.41,1.41h20.98c.78,0,1.41-.63,1.41-1.41v-21.71c0-.78-.63-1.41-1.41-1.41h-4.62c-.78,0-1.41,.63-1.41,1.41v14.27c0,.78-.63,1.41-1.41,1.41Z"/><rect class="cls-3" x="477.08" y="84.21" width="7.44" height="7.44" rx="1.35" ry="1.35"/><rect class="cls-3" x="484.52" y="91.65" width="7.44" height="7.44" rx="1.25" ry="1.25"/><path class="cls-3" d="M449.65,108.47h4.39c.86,0,1.56-.7,1.56-1.56v-21.09c0-.86-.7-1.56-1.56-1.56h-4.32c-.86,0-1.56,.7-1.56,1.56v13.65c0,.86-.7,1.56-1.56,1.56h-11.77c-.86,0-1.56,.7-1.56,1.56v4.33c0,.86,.7,1.56,1.56,1.56h14.82Z"/><rect class="cls-2" x="393.93" y="76.82" width="7.44" height="7.44" rx="1.39" ry="1.39"/><path class="cls-2" d="M415.03,59.12l-9.89,2.69c-.73,.2-1.23,.86-1.23,1.61v4.29c0,.92,.75,1.67,1.67,1.67h4.1c.92,0,1.67-.75,1.67-1.67v-4.29c0-.75,.5-1.41,1.23-1.61l9.89-2.69c.73-.2,1.23-.86,1.23-1.61V2.4c0-.92-.75-1.67-1.67-1.67h-17.61c-.92,0-1.67,.75-1.67,1.67V6.5c0,.92,.75,1.67,1.67,1.67h10.17c.92,0,1.67,.75,1.67,1.67V57.5c0,.75-.5,1.41-1.23,1.61Z"/><rect class="cls-2" x="408.82" y="84.26" width="7.44" height="48.74" rx="1.38" ry="1.38"/><rect class="cls-2" x="401.38" y="39.56" width="7.44" height="7.44" rx="1.38" ry="1.38"/><rect class="cls-2" x="386.49" y="99.1" width="7.44" height="7.44" rx="1.51" ry="1.51"/></g></svg>
